<svg viewBox="0 0 72 72" fill="none" xmlns="http://www.w3.org/2000/svg">
<path d="M36 65.5714C52.3318 65.5714 65.5714 52.3319 65.5714 36C65.5714 19.6682 52.3318 6.42859 36 6.42859C19.6681 6.42859 6.42856 19.6682 6.42856 36C6.42856 52.3319 19.6681 65.5714 36 65.5714Z" fill="#DD4814"/>
<path d="M15.8907 39.9501C18.0708 39.9501 19.8382 38.1827 19.8382 36.0025C19.8382 33.8223 18.0708 32.0549 15.8907 32.0549C13.7105 32.0549 11.9431 33.8223 11.9431 36.0025C11.9431 38.1827 13.7105 39.9501 15.8907 39.9501Z" fill="white"/>
<path d="M26.4839 50.2677C22.9757 47.9281 20.4507 44.3798 19.39 40.2986C20.0289 39.7787 20.5439 39.1231 20.8976 38.3792C21.2514 37.6354 21.4349 36.8221 21.4349 35.9984C21.4349 35.1747 21.2514 34.3614 20.8976 33.6176C20.5439 32.8737 20.0289 32.218 19.39 31.6982C20.4507 27.617 22.9757 24.0687 26.4839 21.7291L29.3716 26.5634C27.8563 27.6266 26.6194 29.039 25.7654 30.6813C24.9115 32.3236 24.4657 34.1474 24.4657 35.9984C24.4657 37.8494 24.9115 39.6732 25.7654 41.3155C26.6194 42.9578 27.8563 44.3702 29.3716 45.4334L26.4839 50.2677Z" fill="white"/>
<path d="M46.0538 22.5352C48.2339 22.5352 50.0013 20.7678 50.0013 18.5876C50.0013 16.4074 48.2339 14.64 46.0538 14.64C43.8736 14.64 42.1062 16.4074 42.1062 18.5876C42.1062 20.7678 43.8736 22.5352 46.0538 22.5352Z" fill="white"/>
<path d="M28.399 20.6259C32.1796 18.7583 36.515 18.3462 40.5798 19.4679C40.7108 20.281 41.0214 21.0547 41.4888 21.7328C41.9562 22.4109 42.5688 22.9764 43.2821 23.3882C43.9954 23.8 44.7914 24.0477 45.6124 24.1134C46.4334 24.1792 47.2587 24.0612 48.0284 23.7681C51.032 26.7272 52.8425 30.6876 53.1152 34.8952L47.4817 34.9786C47.3182 33.1348 46.713 31.3576 45.7176 29.797C44.7221 28.2365 43.3656 26.9385 41.7626 26.0129C40.1596 25.0873 38.3573 24.5613 36.5081 24.4792C34.6589 24.3972 32.8172 24.7616 31.1385 25.5416L28.399 20.6259Z" fill="white"/>
<path d="M46.0537 57.365C48.2339 57.365 50.0013 55.5976 50.0013 53.4174C50.0013 51.2372 48.2339 49.4698 46.0537 49.4698C43.8736 49.4698 42.1062 51.2372 42.1062 53.4174C42.1062 55.5976 43.8736 57.365 46.0537 57.365Z" fill="white"/>
<path d="M53.1148 37.108C52.8421 41.3156 51.0316 45.2759 48.0281 48.2351C47.2584 47.942 46.4331 47.824 45.6121 47.8897C44.7911 47.9554 43.9951 48.2032 43.2818 48.6149C42.5685 49.0267 41.9559 49.5922 41.4885 50.2703C41.021 50.9484 40.7105 51.7221 40.5794 52.5352C36.5146 53.657 32.1793 53.2448 28.3987 51.3773L31.1424 46.4616C32.821 47.2416 34.6628 47.606 36.512 47.5239C38.3612 47.4419 40.1634 46.9158 41.7664 45.9902C43.3694 45.0646 44.7259 43.7667 45.7214 42.2061C46.7169 40.6456 47.322 38.8683 47.4856 37.0245L53.1148 37.108Z" fill="white"/>
</svg>
